{
  "accessors": [
    {
      "bufferView": 0,
      "componentType": 5126,
      "count": 80,
      "max": [
        32.421451568603516,
        32.243839263916016,
        197.92398071289063
      ],
      "min": [
        -31.712961196899414,
        -32.24385070800781,
        150.3264923095703
      ],
      "type": "VEC3"
    },
    {
      "bufferView": 0,
      "byteOffset": 12,
      "componentType": 5126,
      "count": 80,
      "type": "VEC3"
    },
    {
      "bufferView": 0,
      "byteOffset": 24,
      "componentType": 5126,
      "count": 80,
      "type": "VEC2"
    },
    {
      "bufferView": 1,
      "componentType": 5125,
      "count": 360,
      "type": "SCALAR"
    },
    {
      "bufferView": 2,
      "componentType": 5126,
      "count": 77,
      "max": [
        15.364273071289063,
        15.280115127563477,
        229.906982421875
      ],
      "min": [
        -15.028524398803711,
        -15.280102729797363,
        214.12860107421875
      ],
      "type": "VEC3"
    },
    {
      "bufferView": 2,
      "byteOffset": 12,
      "componentType": 5126,
      "count": 77,
      "type": "VEC3"
    },
    {
      "bufferView": 2,
      "byteOffset": 24,
      "componentType": 5126,
      "count": 77,
      "type": "VEC2"
    },
    {
      "bufferView": 3,
      "componentType": 5125,
      "count": 264,
      "type": "SCALAR"
    },
    {
      "bufferView": 4,
      "componentType": 5126,
      "count": 32,
      "max": [
        32.677467346191406,
        32.49845504760742,
        150.93975830078125
      ],
      "min": [
        -31.9633846282959,
        -32.49846267700195,
        98.78523254394531
      ],
      "type": "VEC3"
    },
    {
      "bufferView": 4,
      "byteOffset": 12,
      "componentType": 5126,
      "count": 32,
      "type": "VEC3"
    },
    {
      "bufferView": 4,
      "byteOffset": 24,
      "componentType": 5126,
      "count": 32,
      "type": "VEC2"
    },
    {
      "bufferView": 5,
      "componentType": 5125,
      "count": 90,
      "type": "SCALAR"
    },
    {
      "bufferView": 6,
      "componentType": 5126,
      "count": 209,
      "max": [
        33.224605560302734,
        33.04261016845703,
        99.2944564819336
      ],
      "min": [
        -32.49857711791992,
        -33.042598724365234,
        0.8079137802124023
      ],
      "type": "VEC3"
    },
    {
      "bufferView": 6,
      "byteOffset": 12,
      "componentType": 5126,
      "count": 209,
      "type": "VEC3"
    },
    {
      "bufferView": 6,
      "byteOffset": 24,
      "componentType": 5126,
      "count": 209,
      "type": "VEC2"
    },
    {
      "bufferView": 7,
      "componentType": 5125,
      "count": 1089,
      "type": "SCALAR"
    },
    {
      "bufferView": 8,
      "componentType": 5126,
      "count": 161,
      "max": [
        16.388168334960938,
        16.298385620117188,
        215.1645050048828
      ],
      "min": [
        -16.030046463012695,
        -16.298372268676758,
        197.92398071289063
      ],
      "type": "VEC3"
    },
    {
      "bufferView": 8,
      "byteOffset": 12,
      "componentType": 5126,
      "count": 161,
      "type": "VEC3"
    },
    {
      "bufferView": 9,
      "componentType": 5125,
      "count": 630,
      "type": "SCALAR"
    }
  ],
  "asset": {
    "version": "2.0"
  },
  "bufferViews": [
    {
      "buffer": 0,
      "byteLength": 2560,
      "byteStride": 32,
      "target": 34962
    },
    {
      "buffer": 0,
      "byteLength": 1440,
      "byteOffset": 2560,
      "target": 34963
    },
    {
      "buffer": 0,
      "byteLength": 2464,
      "byteOffset": 4000,
      "byteStride": 32,
      "target": 34962
    },
    {
      "buffer": 0,
      "byteLength": 1056,
      "byteOffset": 6464,
      "target": 34963
    },
    {
      "buffer": 0,
      "byteLength": 1024,
      "byteOffset": 7520,
      "byteStride": 32,
      "target": 34962
    },
    {
      "buffer": 0,
      "byteLength": 360,
      "byteOffset": 8544,
      "target": 34963
    },
    {
      "buffer": 0,
      "byteLength": 6688,
      "byteOffset": 8904,
      "byteStride": 32,
      "target": 34962
    },
    {
      "buffer": 0,
      "byteLength": 4356,
      "byteOffset": 15592,
      "target": 34963
    },
    {
      "buffer": 0,
      "byteLength": 5152,
      "byteOffset": 19948,
      "byteStride": 32,
      "target": 34962
    },
    {
      "buffer": 0,
      "byteLength": 2520,
      "byteOffset": 25100,
      "target": 34963
    }
  ],
  "buffers": [
    {
      "byteLength": 27620,
      "uri": "botella.bin"
    }
  ],
  "extensionsUsed": [
    "KHR_materials_volume",
    "KHR_materials_specular",
    "KHR_materials_transmission",
    "KHR_materials_clearcoat"
  ],
  "images": [
    {
      "uri": "NormalMap.png"
    },
    {
      "uri": "normal_tap.png"
    },
    {
      "uri": "Material__46basecolortexture.png"
    },
    {
      "uri": "normal_line.png"
    }
  ],
  "materials": [
    {
      "doubleSided": true,
      "extensions": {
        "KHR_materials_clearcoat": {
          "clearcoatFactor": 0.5,
          "clearcoatRoughnessFactor": 0.1599999964237213
        },
        "KHR_materials_specular": {
          "specularColorFactor": [
            1.0,
            0.07913669943809509,
            0.0
          ],
          "specularFactor": 1.0
        },
        "KHR_materials_transmission": {
          "transmissionFactor": 1.0
        },
        "KHR_materials_volume": {
          "attenuationColor": [
            1.0,
            1.0,
            1.0
          ],
          "attenuationDistance": 1.1920928955078125e-07,
          "thicknessFactor": 0.7200000286102295
        }
      },
      "name": "Material__48",
      "normalTexture": {
        "index": 0
      },
      "pbrMetallicRoughness": {
        "baseColorFactor": [
          0.05755399912595749,
          0.01334420032799244,
          0.0,
          1.0
        ],
        "roughnessFactor": 0.0
      }
    },
    {
      "doubleSided": true,
      "extensions": {
        "KHR_materials_specular": {
          "specularColorFactor": [
            1.0,
            1.0,
            1.0
          ],
          "specularFactor": 1.0
        }
      },
      "name": "Material__42",
      "normalTexture": {
        "index": 1
      },
      "pbrMetallicRoughness": {
        "baseColorFactor": [
          1.0,
          0.0,
          0.0,
          1.0
        ],
        "metallicFactor": 0.0,
        "roughnessFactor": 0.5
      }
    },
    {
      "doubleSided": true,
      "name": "Material__46",
      "pbrMetallicRoughness": {
        "baseColorTexture": {
          "index": 2
        },
        "metallicFactor": 0.0,
        "roughnessFactor": 0.3199999928474426
      }
    },
    {
      "doubleSided": true,
      "extensions": {
        "KHR_materials_clearcoat": {
          "clearcoatFactor": 0.5,
          "clearcoatRoughnessFactor": 0.1599999964237213
        },
        "KHR_materials_specular": {
          "specularColorFactor": [
            1.0,
            0.07913669943809509,
            0.0
          ],
          "specularFactor": 1.0
        },
        "KHR_materials_transmission": {
          "transmissionFactor": 1.0
        },
        "KHR_materials_volume": {
          "attenuationColor": [
            1.0,
            1.0,
            1.0
          ],
          "attenuationDistance": 1.1920928955078125e-07,
          "thicknessFactor": 0.7200000286102295
        }
      },
      "name": "Material__43",
      "normalTexture": {
        "index": 3
      },
      "pbrMetallicRoughness": {
        "baseColorFactor": [
          0.05755399912595749,
          0.01334420032799244,
          0.0,
          1.0
        ],
        "roughnessFactor": 0.0
      }
    },
    {
      "extensions": {
        "KHR_materials_specular": {
          "specularColorFactor": [
            1.0,
            1.0,
            1.0
          ],
          "specularFactor": 1.0
        },
        "KHR_materials_transmission": {
          "transmissionFactor": 0.5899999737739563
        },
        "KHR_materials_volume": {
          "attenuationColor": [
            1.0,
            1.0,
            1.0
          ],
          "attenuationDistance": 1.1920928955078125e-07,
          "thicknessFactor": 0.0
        }
      },
      "name": "Material__47",
      "pbrMetallicRoughness": {
        "baseColorFactor": [
          1.0,
          0.8776980042457581,
          0.8057550191879272,
          1.0
        ],
        "metallicFactor": 0.27000001072883606,
        "roughnessFactor": 0.0
      }
    }
  ],
  "meshes": [
    {
      "name": "botella_arriba",
      "primitives": [
        {
          "attributes": {
            "NORMAL": 1,
            "POSITION": 0,
            "TEXCOORD_0": 2
          },
          "indices": 3,
          "material": 0,
          "mode": 4
        }
      ]
    },
    {
      "name": "tapon_low",
      "primitives": [
        {
          "attributes": {
            "NORMAL": 5,
            "POSITION": 4,
            "TEXCOORD_0": 6
          },
          "indices": 7,
          "material": 1,
          "mode": 4
        }
      ]
    },
    {
      "name": "etiqueta",
      "primitives": [
        {
          "attributes": {
            "NORMAL": 9,
            "POSITION": 8,
            "TEXCOORD_0": 10
          },
          "indices": 11,
          "material": 2,
          "mode": 4
        }
      ]
    },
    {
      "name": "botella_abajo",
      "primitives": [
        {
          "attributes": {
            "NORMAL": 13,
            "POSITION": 12,
            "TEXCOORD_0": 14
          },
          "indices": 15,
          "material": 3,
          "mode": 4
        }
      ]
    },
    {
      "name": "cuello",
      "primitives": [
        {
          "attributes": {
            "NORMAL": 17,
            "POSITION": 16
          },
          "indices": 18,
          "material": 4,
          "mode": 4
        }
      ]
    }
  ],
  "nodes": [
    {
      "matrix": [
        0.01,
        0.0,
        0.0,
        0.0,
        0.0,
        0.01,
        0.0,
        0.0,
        0.0,
        0.0,
        0.01,
        0.0,
        0.0,
        0.0,
        0.0,
        1.0
      ],
      "mesh": 0,
      "name": "botella_arriba"
    },
    {
      "children": [
        0
      ],
      "matrix": [
        0.0,
        -0.10937570780515671,
        1.6732295549104492e-08,
        0.0,
        0.10937570780515671,
        -3.2596501053916427e-09,
        9.843869629481104e-16,
        0.0,
        -3.2596501053916427e-09,
        1.99919441001839e-08,
        0.10937570780515671,
        0.0,
        -6.300421431660652e-05,
        0.0,
        -0.00020906183868646622,
        1.0
      ]
    },
    {
      "matrix": [
        0.01,
        0.0,
        0.0,
        0.0,
        0.0,
        0.01,
        0.0,
        0.0,
        0.0,
        0.0,
        0.01,
        0.0,
        0.0,
        0.0,
        0.0,
        1.0
      ],
      "mesh": 1,
      "name": "tapon_low"
    },
    {
      "children": [
        2
      ],
      "matrix": [
        6.087419327635762e-16,
        -0.10937570780515668,
        1.0212994894231995e-08,
        0.0,
        0.10937570780515668,
        -9.843869629481103e-15,
        -3.9115800376521286e-08,
        0.0,
        4.2375450703957533e-08,
        6.953344566795749e-09,
        0.10937570780515668,
        0.0,
        -6.300417706370354e-05,
        0.0,
        -0.0002090619131922722,
        1.0
      ]
    },
    {
      "matrix": [
        0.01,
        0.0,
        0.0,
        0.0,
        0.0,
        0.01,
        0.0,
        0.0,
        0.0,
        0.0,
        0.01,
        0.0,
        0.0,
        0.0,
        0.0,
        1.0
      ],
      "mesh": 2,
      "name": "etiqueta"
    },
    {
      "children": [
        4
      ],
      "matrix": [
        6.087419327635762e-16,
        -0.10937570780515668,
        1.0212994894231995e-08,
        0.0,
        0.10937570780515668,
        -9.843869629481103e-15,
        -3.9115800376521286e-08,
        0.0,
        4.2375450703957533e-08,
        6.953344566795749e-09,
        0.10937570780515668,
        0.0,
        -6.300417706370354e-05,
        0.0,
        -0.0002090619131922722,
        1.0
      ]
    },
    {
      "matrix": [
        0.01,
        0.0,
        0.0,
        0.0,
        0.0,
        0.01,
        0.0,
        0.0,
        0.0,
        0.0,
        0.01,
        0.0,
        0.0,
        0.0,
        0.0,
        1.0
      ],
      "mesh": 3,
      "name": "botella_abajo"
    },
    {
      "children": [
        6
      ],
      "matrix": [
        6.087419327635762e-16,
        -0.10937570780515668,
        1.0212994894231995e-08,
        0.0,
        0.10937570780515668,
        -9.843869629481103e-15,
        -3.9115800376521286e-08,
        0.0,
        4.2375450703957533e-08,
        6.953344566795749e-09,
        0.10937570780515668,
        0.0,
        -6.300417706370354e-05,
        0.0,
        -0.0002090619131922722,
        1.0
      ]
    },
    {
      "matrix": [
        0.01,
        0.0,
        0.0,
        0.0,
        0.0,
        0.01,
        0.0,
        0.0,
        0.0,
        0.0,
        0.01,
        0.0,
        0.0,
        0.0,
        0.0,
        1.0
      ],
      "mesh": 4,
      "name": "cuello"
    },
    {
      "children": [
        8
      ],
      "matrix": [
        0.0,
        -0.10937570780515671,
        1.6732295549104492e-08,
        0.0,
        0.10937570780515671,
        -3.2596501053916427e-09,
        9.843869629481104e-16,
        0.0,
        -3.2596501053916427e-09,
        1.99919441001839e-08,
        0.10937570780515671,
        0.0,
        -2.0945463329553605e-05,
        0.0,
        -3.073827363550663e-05,
        1.0
      ]
    }
  ],
  "samplers": [
    {
      "magFilter": 9729,
      "minFilter": 9729,
      "wrapS": 10497,
      "wrapT": 10497
    },
    {
      "magFilter": 9729,
      "minFilter": 9729,
      "wrapS": 10497,
      "wrapT": 10497
    },
    {
      "magFilter": 9729,
      "minFilter": 9729,
      "wrapS": 10497,
      "wrapT": 10497
    },
    {
      "magFilter": 9729,
      "minFilter": 9729,
      "wrapS": 10497,
      "wrapT": 10497
    }
  ],
  "scenes": [
    {
      "nodes": [
        1,
        3,
        5,
        7,
        9
      ]
    }
  ],
  "textures": [
    {
      "name": "texture_source0_sampler0",
      "sampler": 0,
      "source": 0
    },
    {
      "name": "texture_source1_sampler1",
      "sampler": 1,
      "source": 1
    },
    {
      "name": "texture_source2_sampler2",
      "sampler": 2,
      "source": 2
    },
    {
      "name": "texture_source3_sampler3",
      "sampler": 3,
      "source": 3
    }
  ]
}
