{
  "asset": {
    "version": "2.0",
    "generator": "THREE.GLTFExporter"
  },
  "scenes": [
    {
      "name": "Scene",
      "nodes": [
        0,
        11
      ]
    }
  ],
  "scene": 0,
  "nodes": [
    {
      "name": "AmbientLight"
    },
    {
      "matrix": [
        0.01,
        0,
        0,
        0,
        0,
        0.01,
        0,
        0,
        0,
        0,
        0.01,
        0,
        0,
        0,
        0,
        1
      ],
      "name": "botella_arriba",
      "extras": {
        "name": "botella_arriba"
      },
      "mesh": 0
    },
    {
      "matrix": [
        0.1093757078051567,
        0,
        0,
        0,
        0,
        2.428628582799168e-17,
        -0.1093757078051567,
        0,
        0,
        0.1093757078051567,
        2.428628582799168e-17,
        0,
        -0.00006300421431660652,
        0,
        -0.00020906183868646622,
        1
      ],
      "children": [
        1
      ]
    },
    {
      "matrix": [
        0.01,
        0,
        0,
        0,
        0,
        0.01,
        0,
        0,
        0,
        0,
        0.01,
        0,
        0,
        0,
        0,
        1
      ],
      "name": "tapon_low",
      "extras": {
        "name": "tapon_low"
      },
      "mesh": 1
    },
    {
      "matrix": [
        0.10937570780515671,
        0,
        1.3038600421566569e-8,
        0,
        1.3038600421566569e-8,
        1.2143142913995928e-17,
        -0.1093757078051567,
        0,
        0,
        0.1093757078051567,
        1.2143142913995842e-17,
        0,
        -0.00006300417706370354,
        0,
        -0.0002090619131922722,
        1
      ],
      "children": [
        3
      ]
    },
    {
      "matrix": [
        0.01,
        0,
        0,
        0,
        0,
        0.01,
        0,
        0,
        0,
        0,
        0.01,
        0,
        0,
        0,
        0,
        1
      ],
      "name": "etiqueta",
      "extras": {
        "name": "etiqueta"
      },
      "mesh": 2
    },
    {
      "matrix": [
        0.10937570780515671,
        0,
        1.3038600421566569e-8,
        0,
        1.3038600421566569e-8,
        1.2143142913995928e-17,
        -0.1093757078051567,
        0,
        0,
        0.1093757078051567,
        1.2143142913995842e-17,
        0,
        -0.00006300417706370354,
        0,
        -0.0002090619131922722,
        1
      ],
      "children": [
        5
      ]
    },
    {
      "matrix": [
        0.01,
        0,
        0,
        0,
        0,
        0.01,
        0,
        0,
        0,
        0,
        0.01,
        0,
        0,
        0,
        0,
        1
      ],
      "name": "botella_abajo",
      "extras": {
        "name": "botella_abajo"
      },
      "mesh": 3
    },
    {
      "matrix": [
        0.10937570780515671,
        0,
        1.3038600421566569e-8,
        0,
        1.3038600421566569e-8,
        1.2143142913995928e-17,
        -0.1093757078051567,
        0,
        0,
        0.1093757078051567,
        1.2143142913995842e-17,
        0,
        -0.00006300417706370354,
        0,
        -0.0002090619131922722,
        1
      ],
      "children": [
        7
      ]
    },
    {
      "matrix": [
        0.01,
        0,
        0,
        0,
        0,
        0.01,
        0,
        0,
        0,
        0,
        0.01,
        0,
        0,
        0,
        0,
        1
      ],
      "name": "cuello",
      "extras": {
        "name": "cuello"
      },
      "mesh": 4
    },
    {
      "matrix": [
        0.1093757078051567,
        -9.047346498069048e-26,
        8.149125263479105e-10,
        0,
        8.149125263479105e-10,
        2.428628582799168e-17,
        -0.1093757078051567,
        0,
        -9.047346498069048e-26,
        0.1093757078051567,
        2.428628582799168e-17,
        0,
        -0.000020945463329553605,
        0,
        -0.00003073827363550663,
        1
      ],
      "children": [
        9
      ]
    },
    {
      "name": "botella.gltf",
      "children": [
        2,
        4,
        6,
        8,
        10
      ]
    }
  ],
  "bufferViews": [
    {
      "buffer": 0,
      "byteOffset": 0,
      "byteLength": 1848,
      "target": 34962,
      "byteStride": 12
    },
    {
      "buffer": 0,
      "byteOffset": 1848,
      "byteLength": 1848,
      "target": 34962,
      "byteStride": 12
    },
    {
      "buffer": 0,
      "byteOffset": 3696,
      "byteLength": 2676,
      "target": 34963
    },
    {
      "buffer": 0,
      "byteOffset": 6372,
      "byteLength": 924,
      "target": 34962,
      "byteStride": 12
    },
    {
      "buffer": 0,
      "byteOffset": 7296,
      "byteLength": 924,
      "target": 34962,
      "byteStride": 12
    },
    {
      "buffer": 0,
      "byteOffset": 8220,
      "byteLength": 1056,
      "target": 34963
    },
    {
      "buffer": 0,
      "byteOffset": 9276,
      "byteLength": 384,
      "target": 34962,
      "byteStride": 12
    },
    {
      "buffer": 0,
      "byteOffset": 9660,
      "byteLength": 384,
      "target": 34962,
      "byteStride": 12
    },
    {
      "buffer": 0,
      "byteOffset": 10044,
      "byteLength": 256,
      "target": 34962,
      "byteStride": 8
    },
    {
      "buffer": 0,
      "byteOffset": 10300,
      "byteLength": 360,
      "target": 34963
    },
    {
      "buffer": 0,
      "byteOffset": 10660,
      "byteLength": 2508,
      "target": 34962,
      "byteStride": 12
    },
    {
      "buffer": 0,
      "byteOffset": 13168,
      "byteLength": 2508,
      "target": 34962,
      "byteStride": 12
    },
    {
      "buffer": 0,
      "byteOffset": 15676,
      "byteLength": 4356,
      "target": 34963
    },
    {
      "buffer": 0,
      "byteOffset": 20032,
      "byteLength": 1932,
      "target": 34962,
      "byteStride": 12
    },
    {
      "buffer": 0,
      "byteOffset": 21964,
      "byteLength": 1932,
      "target": 34962,
      "byteStride": 12
    },
    {
      "buffer": 0,
      "byteOffset": 23896,
      "byteLength": 2520,
      "target": 34963
    }
  ],
  "buffers": [
    {
      "byteLength": 26416,
      "uri": "data:application/octet-stream;base64,"
    }
  ],
  "accessors": [
    {
      "bufferView": 0,
      "componentType": 5126,
      "count": 154,
      "max": [
        1,
        0.9945220351219177,
        0.6631672978401184
      ],
      "min": [
        -0.9781481027603149,
        -0.9945221543312073,
        -0.000004296468432585243
      ],
      "type": "VEC3"
    },
    {
      "bufferView": 1,
      "componentType": 5126,
      "count": 154,
      "max": [
        32.421451568603516,
        32.243839263916016,
        226.04940795898438
      ],
      "min": [
        -31.712961196899414,
        -32.24385070800781,
        150.3264923095703
      ],
      "type": "VEC3"
    },
    {
      "bufferView": 2,
      "componentType": 5125,
      "count": 669,
      "max": [
        153
      ],
      "min": [
        0
      ],
      "type": "SCALAR"
    },
    {
      "bufferView": 3,
      "componentType": 5126,
      "count": 77,
      "max": [
        0.9976546764373779,
        0.9921894073486328,
        1
      ],
      "min": [
        -0.975853681564331,
        -0.9921894669532776,
        -1
      ],
      "type": "VEC3"
    },
    {
      "bufferView": 4,
      "componentType": 5126,
      "count": 77,
      "max": [
        15.364273071289062,
        15.280115127563477,
        229.906982421875
      ],
      "min": [
        -15.028524398803711,
        -15.280102729797363,
        214.12860107421875
      ],
      "type": "VEC3"
    },
    {
      "bufferView": 5,
      "componentType": 5125,
      "count": 264,
      "max": [
        76
      ],
      "min": [
        0
      ],
      "type": "SCALAR"
    },
    {
      "bufferView": 6,
      "componentType": 5126,
      "count": 32,
      "max": [
        1,
        0.9945219159126282,
        5.740556474620462e-9
      ],
      "min": [
        -0.9781476855278015,
        -0.9945219159126282,
        -1.9008892238048247e-8
      ],
      "type": "VEC3"
    },
    {
      "bufferView": 7,
      "componentType": 5126,
      "count": 32,
      "max": [
        32.677467346191406,
        32.49845504760742,
        150.93975830078125
      ],
      "min": [
        -31.9633846282959,
        -32.49846267700195,
        98.78523254394531
      ],
      "type": "VEC3"
    },
    {
      "bufferView": 8,
      "componentType": 5126,
      "count": 32,
      "max": [
        1.0020933151245117,
        0.5001223087310791
      ],
      "min": [
        0.002093380317091942,
        0.1672632098197937
      ],
      "type": "VEC2"
    },
    {
      "bufferView": 9,
      "componentType": 5125,
      "count": 90,
      "max": [
        31
      ],
      "min": [
        0
      ],
      "type": "SCALAR"
    },
    {
      "bufferView": 10,
      "componentType": 5126,
      "count": 209,
      "max": [
        0.9986202716827393,
        0.9910761117935181,
        0.3539286255836487
      ],
      "min": [
        -0.9823970794677734,
        -0.9910761117935181,
        -0.9997883439064026
      ],
      "type": "VEC3"
    },
    {
      "bufferView": 11,
      "componentType": 5126,
      "count": 209,
      "max": [
        33.224605560302734,
        33.04261016845703,
        99.2944564819336
      ],
      "min": [
        -32.49857711791992,
        -33.042598724365234,
        0.8079137802124023
      ],
      "type": "VEC3"
    },
    {
      "bufferView": 12,
      "componentType": 5125,
      "count": 1089,
      "max": [
        208
      ],
      "min": [
        0
      ],
      "type": "SCALAR"
    },
    {
      "bufferView": 13,
      "componentType": 5126,
      "count": 161,
      "max": [
        1,
        0.9945224523544312,
        0.9793398976325989
      ],
      "min": [
        -0.9781491160392761,
        -0.9945223331451416,
        -1
      ],
      "type": "VEC3"
    },
    {
      "bufferView": 14,
      "componentType": 5126,
      "count": 161,
      "max": [
        16.388168334960938,
        16.298385620117188,
        215.1645050048828
      ],
      "min": [
        -16.030046463012695,
        -16.298372268676758,
        197.92398071289062
      ],
      "type": "VEC3"
    },
    {
      "bufferView": 15,
      "componentType": 5125,
      "count": 630,
      "max": [
        160
      ],
      "min": [
        0
      ],
      "type": "SCALAR"
    }
  ],
  "materials": [
    {
      "pbrMetallicRoughness": {
        "baseColorFactor": [
          0,
          0,
          0,
          1
        ],
        "metallicFactor": 1,
        "roughnessFactor": 1
      },
      "name": "fallback Material"
    },
    {
      "pbrMetallicRoughness": {
        "baseColorFactor": [
          0.5,
          0,
          0,
          1
        ],
        "metallicFactor": 0,
        "roughnessFactor": 0
      },
      "name": "Material__32",
      "extensions": {
        "KHR_materials_clearcoat": {
          "clearcoatFactor": 0.5,
          "clearcoatRoughnessFactor": 0.8999999761581421
        }
      }
    },
    {
      "pbrMetallicRoughness": {
        "baseColorFactor": [
          0.5,
          0.5,
          0.5,
          1
        ],
        "metallicFactor": 0,
        "roughnessFactor": 0.5
      },
      "name": "coke_eu_pet_500_wet_basic_material"
    },
    {
      "pbrMetallicRoughness": {
        "baseColorFactor": [
          0,
          0,
          0,
          1
        ],
        "metallicFactor": 1,
        "roughnessFactor": 1
      },
      "name": "fallback Material"
    },
    {
      "pbrMetallicRoughness": {
        "baseColorFactor": [
          0,
          0,
          0,
          1
        ],
        "metallicFactor": 1,
        "roughnessFactor": 1
      },
      "name": "fallback Material"
    }
  ],
  "meshes": [
    {
      "primitives": [
        {
          "mode": 4,
          "attributes": {
            "NORMAL": 0,
            "POSITION": 1
          },
          "indices": 2,
          "material": 0
        }
      ]
    },
    {
      "primitives": [
        {
          "mode": 4,
          "attributes": {
            "NORMAL": 3,
            "POSITION": 4
          },
          "indices": 5,
          "material": 1
        }
      ]
    },
    {
      "primitives": [
        {
          "mode": 4,
          "attributes": {
            "NORMAL": 6,
            "POSITION": 7,
            "TEXCOORD_0": 8
          },
          "indices": 9,
          "material": 2
        }
      ]
    },
    {
      "primitives": [
        {
          "mode": 4,
          "attributes": {
            "NORMAL": 10,
            "POSITION": 11
          },
          "indices": 12,
          "material": 3
        }
      ]
    },
    {
      "primitives": [
        {
          "mode": 4,
          "attributes": {
            "NORMAL": 13,
            "POSITION": 14
          },
          "indices": 15,
          "material": 4
        }
      ]
    }
  ],
  "extensionsUsed": [
    "KHR_materials_clearcoat"
  ]
}